<?xml version="1.0" encoding="UTF-8" standalone="no"?>
<svg width="302px" height="302px" viewBox="0 0 302 302" version="1.1" xmlns="http://www.w3.org/2000/svg" xmlns:xlink="http://www.w3.org/1999/xlink" xmlns:sketch="http://www.bohemiancoding.com/sketch/ns">
    <!-- Generator: Sketch 3.2.2 (9983) - http://www.bohemiancoding.com/sketch -->
    <title>Imported Layers</title>
    <desc>Created with Sketch.</desc>
    <defs></defs>
    <g id="Page-1" stroke="none" stroke-width="1" fill="none" fill-rule="evenodd" sketch:type="MSPage">
        <g id="Imported-Layers" sketch:type="MSLayerGroup">
            <path d="M302,151 C302,234.394191 234.393329,302 150.999445,302 C67.6055603,302 0,234.394191 0,151 C0,67.6046985 67.6055603,0 150.999445,0 C234.393329,0 302,67.6046985 302,151" id="Fill-1" fill="#05A650" sketch:type="MSShapeGroup"></path>
            <path d="M157.298009,172.566131 C157.074841,172.216388 156.851673,171.814462 156.627394,171.375896 C154.799857,167.810741 152.985643,161.758528 152.432718,159.705594 C152.43938,159.705594 152.443821,159.708925 152.447152,159.708925 C152.447152,159.705594 152.443821,159.701153 152.43938,159.693381 C155.695861,161.001307 161.489354,161.95394 170.458277,161.95394 C176.604843,161.95394 181.562288,161.946168 184.90315,160.989094 C186.259925,163.036476 190.211447,168.173807 193.138172,171.603506 C193.426847,171.941035 201.5142,180.234932 205.463501,183.267146 L163.074848,183.267146 L157.298009,172.566131 Z" id="Fill-3" fill="#FEFEFE" sketch:type="MSShapeGroup"></path>
            <path d="M180.010102,129.878431 C178.346888,129.878431 176.989003,128.528313 176.989003,126.859541 C176.989003,125.186328 178.346888,123.831769 180.010102,123.831769 C181.68442,123.831769 183.034532,125.186328 183.037863,126.859541 C183.037863,128.524982 181.68442,129.878431 180.010102,129.878431 M221.663743,151.106144 C220.570107,149.893703 218.996826,149.153137 213.173355,147.045799 C206.99126,144.800784 196.811011,133.61124 195.382068,132.037953 C195.523075,132.037953 194.448314,112.984196 176.610394,112.179232 C159.889426,111.428674 146.784673,131.381769 150.878312,152.737166 C150.891636,152.817107 151.032643,153.425549 151.284678,154.448129 C151.446781,154.538063 151.645523,154.6391 151.90311,154.754571 C152.692526,155.125409 153.909404,155.638365 155.543751,156.146879 C158.819107,157.165019 163.775441,158.193151 170.460498,158.193151 C175.747699,158.193151 179.848,157.543629 182.879092,156.771975 C182.716989,156.579894 182.547115,156.356725 182.377241,156.180188 C181.284715,155.036585 181.206995,154.065078 181.206995,154.065078 C181.206995,154.065078 179.647037,144.74749 193.129289,147.922931 C205.406876,150.814137 205.768831,155.984776 217.099341,156.03585 C223.606751,155.95924 223.175958,152.440718 221.663743,151.106144" id="Fill-5" fill="#FEFEFE" sketch:type="MSShapeGroup"></path>
            <path d="M149.307474,129.55478 C149.300812,129.55478 149.300812,129.558111 149.29304,129.562552 C149.29304,129.55478 149.300812,129.551449 149.300812,129.548118 C146.048773,130.857155 140.076523,131.865302 131.105379,131.860861 C124.958813,131.860861 119.988045,131.798685 116.648292,130.843832 C109.485811,147.641471 110.767086,166.900633 111.166791,171.528339 C111.711943,177.662714 112.968791,183.243052 112.96546,183.266368 L154.686829,183.266368 C154.580241,182.922177 152.385198,177.662714 150.418874,171.53389 C145.84892,156.35839 145.058394,145.18217 149.307474,129.55478" id="Fill-7" fill="#FEFEFE" sketch:type="MSShapeGroup"></path>
            <path d="M199.402206,138.789429 C200.043954,139.270187 200.982149,140.203944 200.572452,140.734665 C200.200504,141.220974 199.054685,140.582554 198.409607,140.102907 C197.763418,139.626591 196.895171,138.540724 197.338177,138.053304 C197.778962,137.569216 198.752686,138.313113 199.402206,138.789429" id="Fill-9" fill="#FEFEFE" sketch:type="MSShapeGroup"></path>
            <path d="M199.642917,138.463114 L199.399763,138.78621 L199.642917,138.457562 C199.115529,138.096717 198.463789,137.517143 197.712122,137.484945 C197.47341,137.481614 197.211382,137.582651 197.030404,137.782504 C196.868302,137.937945 196.802795,138.18554 196.807236,138.379842 C196.852758,139.224776 197.583329,139.964232 198.167341,140.426114 C198.694729,140.799173 199.434182,141.288812 200.159202,141.309908 L200.174746,141.309908 C200.411237,141.309908 200.702133,141.221085 200.887552,140.982371 C201.007463,140.808055 201.074081,140.620415 201.07186,140.429445 C201.010794,139.558974 200.202503,138.919445 199.642917,138.463114" id="Fill-11" fill="#FEFEFE" sketch:type="MSShapeGroup"></path>
            <path d="M200.240364,140.492843 C200.235923,140.492843 200.213717,140.496174 200.159313,140.498394 C199.859534,140.52171 199.080111,140.109791 198.647098,139.775593 C198.185217,139.465821 197.570116,138.630879 197.615638,138.379953 L197.615638,138.343313 C197.666712,138.298901 197.651167,138.302232 197.712233,138.298901 C197.939843,138.262262 198.674855,138.731916 199.157831,139.116078 C199.665234,139.453607 200.321415,140.233034 200.26368,140.429556 C200.259239,140.44621 200.257018,140.460644 200.240364,140.492843" id="Fill-13" fill="#FEFEFE" sketch:type="MSShapeGroup"></path>
            <path d="M121.970357,99.6331309 C120.310473,99.6331309 118.951478,98.2841235 118.945927,96.6153515 C118.945927,94.9388074 120.310473,93.5898 121.970357,93.5898 C123.645784,93.5898 124.995897,94.9388074 124.995897,96.6153515 C124.995897,98.2785721 123.645784,99.6331309 121.970357,99.6331309 M104.076923,110.075447 C103.546204,110.442954 102.80453,110.929263 102.082842,110.952579 L102.063967,110.952579 C101.828585,110.952579 101.537689,110.863756 101.357822,110.629484 C101.220146,110.46516 101.162411,110.251984 101.165742,110.075447 C101.225698,109.198315 102.03732,108.557675 102.605788,108.104675 C103.118742,107.742719 103.776034,107.159815 104.531031,107.128726 C104.758641,107.123175 105.029551,107.215329 105.210529,107.419624 C105.36708,107.590609 105.433697,107.818219 105.429256,108.023624 C105.384844,108.868557 104.663156,109.608013 104.076923,110.075447 M125.393381,82.0038809 C107.555461,82.8077338 106.476259,101.865932 106.620597,101.865932 C105.188323,103.434778 95.0114044,114.628763 88.8270889,116.866006 C83.0013971,118.981116 81.4281161,119.721682 80.3355907,120.934124 C78.8222654,122.268697 78.3970243,125.783888 84.9044342,125.863829 C96.234944,125.812756 96.5957883,120.637675 108.868934,117.75091 C122.354517,114.575469 120.79456,123.893057 120.79456,123.893057 C120.79456,123.893057 120.715729,124.860124 119.618762,126.003726 C119.452219,126.181374 119.286786,126.400101 119.121352,126.598844 C122.155775,127.371609 126.256076,128.01669 131.542167,128.01669 C138.225003,128.01669 143.180227,126.989668 146.456693,125.971528 C148.09104,125.463013 149.307918,124.953388 150.094003,124.58255 C150.353811,124.463749 150.552553,124.364932 150.714655,124.274999 C150.967802,123.253528 151.104367,122.640646 151.122132,122.557374 C155.214661,101.208638 142.115459,81.2566529 125.393381,82.0038809" id="Fill-15" fill="#FEFEFE" sketch:type="MSShapeGroup"></path>
            <path d="M166.804868,214.204381 L159.722327,202.376418 L156.470288,202.376418 L156.470288,219.622616 L159.5036,219.622616 L159.5036,207.827962 L166.561714,219.622616 L169.832629,219.622616 L169.832629,202.355322 L166.804868,202.355322 L166.804868,214.204381 Z M131.802974,219.622616 L134.836287,219.622616 L134.836287,202.376418 L131.802974,202.376418 L131.802974,219.622616 Z M143.473233,212.953079 L145.201954,208.683999 L146.935117,212.953079 L143.473233,212.953079 Z M145.201954,200.617712 L144.696772,201.864572 L143.647548,204.450447 L137.482108,219.645932 L140.758574,219.645932 L142.226377,216.025263 L148.176421,216.025263 L149.651997,219.645932 L152.925132,219.645932 L146.75525,204.450447 L145.201954,200.617712 Z M192.035098,214.463079 L183.474762,202.376418 L180.252701,202.376418 L180.252701,219.622616 L183.294895,219.622616 L183.294895,207.591469 L191.828584,219.622616 L195.070631,219.622616 L195.070631,202.355322 L192.035098,202.355322 L192.035098,214.463079 Z M253.133249,205.386425 L253.133249,202.355322 L242.652111,202.355322 L242.652111,219.622616 L253.133249,219.622616 L253.133249,216.584851 L245.682092,216.584851 L245.682092,212.462329 L253.133249,212.462329 L253.133249,209.424565 L245.682092,209.424565 L245.682092,205.386425 L253.133249,205.386425 Z M212.360068,213.21844 C212.054738,213.930138 211.648372,214.537469 211.115433,215.06819 C210.590265,215.594469 209.982937,216.006388 209.282344,216.309499 C208.591743,216.610388 207.85229,216.762499 207.041779,216.762499 C206.250142,216.762499 205.51735,216.610388 204.807875,216.309499 C204.101731,216.006388 203.482189,215.590028 202.964794,215.06819 C202.437406,214.537469 202.022157,213.925697 201.717938,213.21844 C201.417049,212.515624 201.272711,211.780609 201.272711,210.988969 C201.272711,210.177344 201.417049,209.435668 201.717938,208.749506 C202.022157,208.04669 202.437406,207.437138 202.964794,206.904197 C203.482189,206.384579 204.101731,205.97266 204.814537,205.663999 C205.508468,205.360888 206.250142,205.21544 207.041779,205.21544 C207.85229,205.21544 208.591743,205.360888 209.282344,205.663999 C209.982937,205.97266 210.590265,206.384579 211.115433,206.904197 C211.648372,207.437138 212.060289,208.043359 212.360068,208.743954 C212.658736,209.435668 212.816397,210.182896 212.816397,210.988969 C212.816397,211.780609 212.658736,212.515624 212.360068,213.21844 L212.360068,213.21844 Z M213.270506,204.754668 C212.474428,203.957476 211.538453,203.326829 210.470354,202.871609 C209.392263,202.409726 208.250884,202.178785 207.041779,202.178785 C205.824901,202.178785 204.67242,202.409726 203.606541,202.871609 C202.540663,203.326829 201.605799,203.957476 200.809721,204.754668 C200.014753,205.552969 199.385218,206.494499 198.925558,207.561491 C198.465898,208.634035 198.232737,209.782079 198.232737,210.988969 C198.232737,212.205851 198.465898,213.358337 198.925558,214.42644 C199.385218,215.48344 200.014753,216.420528 200.815272,217.217719 C201.605799,218.01491 202.540663,218.645557 203.6021,219.100778 C204.67242,219.565991 205.824901,219.792491 207.041779,219.792491 C208.245333,219.792491 209.392263,219.565991 210.470354,219.106329 C211.538453,218.645557 212.474428,218.019351 213.270506,217.22216 C214.066584,216.420528 214.699449,215.48344 215.16244,214.42644 C215.6221,213.358337 215.847489,212.2003 215.847489,210.988969 C215.847489,209.782079 215.6221,208.634035 215.16244,207.561491 C214.699449,206.494499 214.066584,205.552969 213.270506,204.754668 L213.270506,204.754668 Z M233.849731,202.355322 L230.814198,202.355322 L230.814198,219.622616 L239.888599,219.622616 L239.888599,216.584851 L233.849731,216.584851 L233.849731,202.355322 Z M222.038466,202.355322 L218.996271,202.355322 L218.996271,219.622616 L228.074003,219.622616 L228.074003,216.584851 L222.038466,216.584851 L222.038466,202.355322 Z M97.8958269,219.622616 L100.926919,219.622616 L100.926919,202.376418 L97.8958269,202.376418 L97.8958269,219.622616 Z M117.817761,205.386425 L121.956922,205.386425 L121.956922,219.622616 L124.999117,219.622616 L124.999117,205.386425 L129.203785,205.386425 L129.203785,202.355322 L117.817761,202.355322 L117.817761,205.386425 Z M91.2562924,208.478594 C91.1974471,208.749506 91.0864181,209.020418 90.9165437,209.290219 C90.7599928,209.543366 90.5401554,209.766535 90.2425976,209.961947 C90.002775,210.121829 89.6596954,210.226197 89.1656163,210.226197 L85.1174988,210.226197 L85.1174988,205.386425 L89.1656163,205.386425 C89.6630262,205.386425 90.0227602,205.48191 90.2648034,205.627359 C90.5568097,205.807226 90.7699854,206.012631 90.9220951,206.243572 C91.0919695,206.502271 91.2018882,206.754307 91.2562924,207.009675 C91.3206893,207.316116 91.3517774,207.561491 91.3517774,207.731366 C91.3517774,207.903462 91.3206893,208.158829 91.2562924,208.478594 L91.2562924,208.478594 Z M93.6489675,210.666984 C94.1374951,209.796513 94.3873103,208.813903 94.3873103,207.752462 C94.3873103,207.000793 94.2562961,206.294646 94.0042603,205.63291 C93.746673,204.981168 93.386939,204.404925 92.9150658,203.918616 C92.4542954,203.436749 91.8935989,203.051476 91.2562924,202.776124 C90.6056625,202.495219 89.899518,202.350881 89.1378591,202.355322 L82.086407,202.355322 L82.086407,219.622616 L85.1174988,219.622616 L85.1174988,213.2573 L88.9557715,213.2573 L91.8425256,219.622616 L95.1867192,219.622616 L91.9235768,212.483425 C92.6397138,212.033756 93.2137338,211.421984 93.6489675,210.666984 L93.6489675,210.666984 Z M75.5234826,209.468976 L69.1404252,209.468976 L69.1404252,202.355322 L66.1026717,202.355322 L66.1026717,219.622616 L69.1404252,219.622616 L69.1404252,212.504521 L75.5234826,212.504521 L75.5234826,219.622616 L78.5556847,219.622616 L78.5556847,202.355322 L75.5234826,202.355322 L75.5234826,209.468976 Z M112.220789,209.663278 C111.662313,209.450101 109.649357,208.894954 109.2763,208.768381 C108.429148,208.457499 107.426557,208.143285 107.426557,206.845351 L107.426557,206.8398 C107.430998,205.386425 108.58903,204.941197 109.985775,204.87569 C111.013904,204.910109 111.533519,205.17769 112.159723,206.072587 C112.296289,206.270219 112.393994,206.470072 112.478376,206.683249 L112.551655,206.874219 L112.701544,207.295021 L114.801103,206.956381 L115.138631,206.904197 L115.810357,206.793168 L115.427307,205.847197 C115.143072,204.928984 114.019459,201.994476 110.062385,202.025565 L110.046841,202.025565 C110.031297,202.021124 110.000209,202.021124 109.946915,202.031116 C107.55313,202.055543 104.475406,203.29019 104.469854,206.891984 L104.466523,206.904197 C104.466523,210.372756 107.385476,211.44641 109.39066,211.964918 C111.310351,212.491197 112.015385,212.723249 112.426193,213.121844 C112.701544,213.378322 113.022418,213.730285 113.039073,214.620741 C112.982448,215.864271 112.30184,217.038962 109.871415,217.102249 C108.567935,217.088925 107.480961,216.640366 107.009087,215.583366 C106.880294,215.303572 106.805904,214.972704 106.771485,214.601866 L106.739287,214.300976 L106.684883,213.718072 L104.427663,214.094462 L104.154532,214.141094 L103.6116,214.232138 L103.752607,215.047094 C104.020187,216.610388 104.736324,217.988263 106.034253,218.916469 C106.924705,219.552668 108.195988,220.016771 109.855871,220.016771 L109.88918,220.016771 C113.969496,220.016771 116.05462,217.14444 116.057951,214.550793 C116.049069,211.065579 113.061278,209.931969 112.220789,209.663278 L112.220789,209.663278 Z M53.555284,206.925293 C54.0737894,206.403454 54.6677946,205.983763 55.3739391,205.677322 C56.0756424,205.36644 56.8228676,205.21544 57.6511439,205.21544 C58.340634,205.21544 58.9968155,205.322028 59.6274602,205.536315 C60.2614358,205.757263 60.8243529,206.072587 61.333976,206.494499 L61.778092,206.860896 L63.5867545,204.390491 L63.2037044,204.058513 C63.0971166,203.968579 62.9216907,203.833124 62.6563314,203.637712 C62.3487811,203.412322 61.9779442,203.203587 61.5205047,202.985969 C61.0519623,202.765021 60.5112511,202.580712 59.8894886,202.420829 C59.2321969,202.260947 58.5060673,202.178785 57.6877835,202.178785 C56.4864497,202.178785 55.3339686,202.409726 54.2603182,202.880491 C53.19555,203.346815 52.2584652,203.988565 51.461277,204.790197 C50.6685299,205.591829 50.033444,206.525587 49.5682325,207.587028 C49.0952489,208.65291 48.8609777,209.806506 48.8665292,211.010065 C48.8609777,212.2003 49.0952489,213.343903 49.5682325,214.412006 C50.033444,215.469006 50.6685299,216.401653 51.4746005,217.202175 C52.280671,217.988263 53.2144249,218.625572 54.2703108,219.085234 C55.3384098,219.56155 56.4864497,219.792491 57.6877835,219.792491 C58.5016261,219.792491 59.2321969,219.719212 59.8850475,219.552668 C60.5112511,219.390565 61.0519623,219.208476 61.5205047,218.987528 C61.9779442,218.775462 62.3443399,218.571168 62.6452285,218.347999 C62.8950438,218.160359 63.0660284,218.029344 63.1659545,217.953844 L63.573431,217.629638 L61.7825332,215.10705 L61.333976,215.48344 C60.8243529,215.905351 60.265877,216.215124 59.6330116,216.434962 C59.0134698,216.65591 58.3695016,216.762499 57.6877835,216.762499 C56.9538818,216.762499 56.2488476,216.601506 55.5515855,216.279521 C54.845441,215.953094 54.221458,215.524521 53.6774159,214.978256 C53.1344841,214.431991 52.7048018,213.815778 52.3728251,213.117403 C52.0575027,212.431241 51.8998415,211.735087 51.8954004,211.010065 C51.8998415,210.218425 52.0486204,209.475638 52.3372958,208.768381 C52.6392947,208.064454 53.0434403,207.452682 53.555284,206.925293 L53.555284,206.925293 Z" id="Fill-17" fill="#FEFEFE" sketch:type="MSShapeGroup"></path>
        </g>
    </g>
</svg>