<?xml version="1.0" encoding="UTF-8" standalone="no"?>
<svg width="272px" height="272px" viewBox="0 0 272 272" version="1.1" xmlns="http://www.w3.org/2000/svg" xmlns:xlink="http://www.w3.org/1999/xlink" xmlns:sketch="http://www.bohemiancoding.com/sketch/ns">
    <!-- Generator: Sketch 3.2.2 (9983) - http://www.bohemiancoding.com/sketch -->
    <title>Imported Layers</title>
    <desc>Created with Sketch.</desc>
    <defs></defs>
    <g id="Page-1" stroke="none" stroke-width="1" fill="none" fill-rule="evenodd" sketch:type="MSPage">
        <g id="Imported-Layers" sketch:type="MSLayerGroup">
            <path d="M272.001,136 C272.001,211.111 211.11,272 136,272 C60.89,272 0,211.111 0,136 C0,60.889 60.89,0 136,0 C211.11,0 272.001,60.889 272.001,136" id="Fill-1" fill="#00B05E" sketch:type="MSShapeGroup"></path>
            <path d="M145.3179,195.0913 C144.9879,194.5703 144.6569,193.9783 144.3269,193.3293 C141.6209,188.0543 138.9369,179.1013 138.1199,176.0643 C138.1299,176.0643 138.1369,176.0693 138.1409,176.0693 C138.1409,176.0643 138.1369,176.0583 138.1299,176.0473 C142.9469,177.9803 151.5199,179.3893 164.7869,179.3893 C173.8799,179.3893 181.2159,179.3793 186.1579,177.9643 C188.1659,180.9923 194.0119,188.5913 198.3409,193.6653 C198.7689,194.1673 210.7339,206.4363 216.5749,210.9213 L153.8649,210.9213 L145.3179,195.0913 Z" id="Fill-3" fill="#FEFEFE" sketch:type="MSShapeGroup"></path>
            <path d="M178.918,131.9365 C176.458,131.9365 174.449,129.9395 174.449,127.4705 C174.449,124.9965 176.458,122.9915 178.918,122.9915 C181.397,122.9915 183.393,124.9965 183.398,127.4705 C183.398,129.9345 181.397,131.9365 178.918,131.9365 M240.541,163.3415 C238.925,161.5475 236.598,160.4535 227.982,157.3345 C218.836,154.0145 203.775,137.4585 201.661,135.1315 C201.868,135.1315 200.279,106.9425 173.891,105.7525 C149.15,104.6415 129.764,134.1605 135.819,165.7545 C135.84,165.8725 136.048,166.7745 136.423,168.2865 C136.662,168.4185 136.955,168.5685 137.336,168.7395 C138.504,169.2885 140.304,170.0465 142.722,170.7995 C147.57,172.3065 154.9,173.8265 164.792,173.8265 C172.614,173.8265 178.679,172.8655 183.165,171.7235 C182.923,171.4405 182.672,171.1095 182.421,170.8485 C180.805,169.1555 180.69,167.7185 180.69,167.7185 C180.69,167.7185 178.381,153.9355 198.33,158.6325 C216.493,162.9095 217.027,170.5595 233.791,170.6345 C243.417,170.5215 242.779,165.3165 240.541,163.3415" id="Fill-5" fill="#FEFEFE" sketch:type="MSShapeGroup"></path>
            <path d="M133.4966,131.4585 C133.4856,131.4585 133.4856,131.4635 133.4756,131.4695 C133.4756,131.4585 133.4856,131.4525 133.4856,131.4485 C128.6756,133.3855 119.8396,134.8755 106.5676,134.8705 C97.4756,134.8705 90.1196,134.7785 85.1796,133.3645 C74.5836,158.2165 76.4776,186.7095 77.0706,193.5555 C77.8776,202.6295 79.7356,210.8865 79.7306,210.9205 L141.4536,210.9205 C141.2966,210.4105 138.0496,202.6295 135.1416,193.5645 C128.3796,171.1125 127.2106,154.5775 133.4966,131.4585" id="Fill-7" fill="#FEFEFE" sketch:type="MSShapeGroup"></path>
            <path d="M207.6094,145.1201 C208.5574,145.8311 209.9454,147.2131 209.3384,147.9981 C208.7884,148.7191 207.0954,147.7731 206.1404,147.0641 C205.1854,146.3591 203.8984,144.7521 204.5534,144.0311 C205.2064,143.3161 206.6474,144.4151 207.6094,145.1201" id="Fill-9" fill="#FEFEFE" sketch:type="MSShapeGroup"></path>
            <path d="M207.9639,144.6377 L207.6059,145.1157 L207.9639,144.6287 C207.1839,144.0957 206.2209,143.2397 205.1079,143.1907 C204.7559,143.1847 204.3669,143.3347 204.1009,143.6307 C203.8599,143.8607 203.7629,144.2267 203.7689,144.5147 C203.8369,145.7637 204.9159,146.8587 205.7809,147.5417 C206.5609,148.0947 207.6549,148.8177 208.7279,148.8497 L208.7519,148.8497 C209.1009,148.8497 209.5309,148.7187 209.8069,148.3647 C209.9829,148.1077 210.0799,147.8297 210.0779,147.5477 C209.9879,146.2587 208.7929,145.3127 207.9639,144.6377" id="Fill-11" fill="#FEFEFE" sketch:type="MSShapeGroup"></path>
            <path d="M208.8477,147.6401 C208.8427,147.6401 208.8087,147.6461 208.7277,147.6481 C208.2857,147.6831 207.1317,147.0741 206.4927,146.5801 C205.8087,146.1211 204.8977,144.8861 204.9657,144.5151 L204.9657,144.4611 C205.0387,144.3941 205.0177,144.4001 205.1077,144.3941 C205.4447,144.3411 206.5337,145.0351 207.2467,145.6031 C207.9977,146.1021 208.9697,147.2561 208.8817,147.5471 C208.8757,147.5711 208.8727,147.5921 208.8477,147.6401" id="Fill-13" fill="#FEFEFE" sketch:type="MSShapeGroup"></path>
            <path d="M93.0532,87.1919 C90.5972,87.1919 88.5862,85.1959 88.5792,82.7269 C88.5792,80.2469 90.5972,78.2499 93.0532,78.2499 C95.5322,78.2499 97.5292,80.2469 97.5292,82.7269 C97.5292,85.1869 95.5322,87.1919 93.0532,87.1919 M66.5802,102.6399 C65.7952,103.1849 64.6982,103.9029 63.6322,103.9379 L63.6032,103.9379 C63.2542,103.9379 62.8242,103.8069 62.5562,103.4599 C62.3542,103.2159 62.2692,102.9009 62.2742,102.6399 C62.3622,101.3419 63.5632,100.3949 64.4042,99.7249 C65.1632,99.1889 66.1352,98.3259 67.2522,98.2809 C67.5902,98.2729 67.9902,98.4089 68.2592,98.7109 C68.4892,98.9639 68.5882,99.3009 68.5812,99.6049 C68.5152,100.8539 67.4482,101.9479 66.5802,102.6399 M98.1162,61.1089 C71.7272,62.2999 70.1312,90.4939 70.3442,90.4939 C68.2252,92.8169 53.1692,109.3769 44.0192,112.6869 C35.4012,115.8159 33.0742,116.9099 31.4572,118.7039 C29.2192,120.6789 28.5902,125.8789 38.2152,125.9969 C54.9792,125.9219 55.5122,118.2669 73.6702,113.9959 C93.6222,109.2969 91.3142,123.0819 91.3142,123.0819 C91.3142,123.0819 91.1972,124.5129 89.5742,126.2059 C89.3282,126.4669 89.0822,126.7919 88.8392,127.0859 C93.3282,128.2289 99.3932,129.1839 107.2142,129.1839 C117.1012,129.1839 124.4312,127.6629 129.2792,126.1569 C131.6972,125.4039 133.4962,124.6519 134.6602,124.1019 C135.0462,123.9259 135.3392,123.7819 135.5782,123.6479 C135.9522,122.1369 136.1552,121.2299 136.1812,121.1069 C142.2352,89.5229 122.8572,60.0039 98.1162,61.1089" id="Fill-15" fill="#FEFEFE" sketch:type="MSShapeGroup"></path>
        </g>
    </g>
</svg>